# xmcd
#
# Track frame offsets:
#	150
#	12478
#	26055
#	37693
#	50412
#	64801
#	78464
#	88057
#	99927
#	112379
#	120702
#	132402
#	141883
#	150810
#	163221
#
# Disc length: 2378 seconds
#
# Revision: 0
# Processed by: cddbd v1.5.2PL0 Copyright (c) Steve Scherf et al.
# Submitted via: audiograbber 1.83.01
#
DISCID=c509480f
DTITLE=Charley Crockett - Lil G.L.'s Blue Bonanza 
DYEAR=2018
DGENRE=Blues
TTITLE0=Here Am I
TTITLE1=That's How I Got To Memphis
TTITLE2=It's A Man Down There
TTITLE3=Travelin' Blues
TTITLE4=Good Time Charley's Got The Blues
TTITLE5=Trouble Blues
TTITLE6=The Race Is On
TTITLE7=Burn Another Honky Tonk Down
TTITLE8=Lots Of Luck
TTITLE9=Servant Of Love
TTITLE10=Bright Lights Big City
TTITLE11=A Dime At A Time
TTITLE12=T-Bone Shuffle
TTITLE13=Saturday Satan Sunday Saint
TTITLE14=Lead Me On
EXTD=
EXTT0=
EXTT1=
EXTT2=
EXTT3=
EXTT4=
EXTT5=
EXTT6=
EXTT7=
EXTT8=
EXTT9=
EXTT10=
EXTT11=
EXTT12=
EXTT13=
EXTT14=
PLAYORDER=
